# xmcd
#
# Track frame offsets: 
#        150
#        39858
#        65195
#        81599
#        94537
#        110069
#        136486
#        150849
#        162377
#        177415
#        202728
#        218288
#        258486
#        283703
#
# Disc length: 4365 seconds
#
# Revision: 0
# Processed by: cddbd v1.5.2PL0 Copyright (c) Steve Scherf et al.
# Submitted via: ExactAudioCopy v0.95b3
#
DISCID=bf110b0e
DTITLE=Jimi Hendrix  - TTG Studios (ATM 183) - Disc 4
DYEAR=1900
DGENRE=
TTITLE0=Gloria
TTITLE1=Red House
TTITLE2=Let Me Stay
TTITLE3=Magic Carpet
TTITLE4=Morning Glory
TTITLE5=Mr. Guy Fawkes
TTITLE6=Yes I Need Someone
TTITLE7=Someone Is Sure To (Want You)
TTITLE8=The Clown
TTITLE9=Captive In The Sun
TTITLE10=Look Over Yonder - Rainbow Bridge LP mix
TTITLE11=Gloria - LP boxset mix
TTITLE12=Red House - Blues CD mix
TTITLE13=Gloria - unedited
EXTD=
EXTT0=
EXTT1=
EXTT2=
EXTT3=
EXTT4=
EXTT5=
EXTT6=
EXTT7=
EXTT8=
EXTT9=
EXTT10=
EXTT11=
EXTT12=
EXTT13=
PLAYORDER=
